<svg width="80" height="80" viewBox="0 0 80 80" fill="none" xmlns="http://www.w3.org/2000/svg">
<path d="M20.434 40.0769C20.434 50.9085 29.2453 59.7198 40.0769 59.7198C50.9085 59.7198 59.7197 50.9085 59.7197 40.0769C59.7197 29.2453 50.9085 20.4341 40.0769 20.4341C29.2453 20.4341 20.434 29.2453 20.434 40.0769ZM40.0769 28.2802C46.5813 28.2802 51.8736 33.5725 51.8736 40.0769C51.8736 46.5814 46.5813 51.8736 40.0769 51.8736C33.5724 51.8736 28.2802 46.5814 28.2802 40.0769C28.2802 33.5725 33.5724 28.2802 40.0769 28.2802ZM36.146 67.5385H43.9921V79.3077H36.146V67.5385ZM36.146 0.846161H43.9921V12.6154H36.146V0.846161ZM0.838257 36.1539H12.6075V44H0.838257V36.1539ZM67.5306 36.1539H79.2998V44H67.5306V36.1539ZM9.55141 65.0395L17.8683 56.7147L23.4195 62.2619L15.1026 70.5867L9.55141 65.0395ZM56.7107 17.888L65.0355 9.56324L70.5827 15.1105L62.2579 23.4352L56.7107 17.888ZM17.8801 23.4392L9.55533 15.1144L15.1065 9.56716L23.4234 17.8919L17.8801 23.4392ZM70.5827 65.0434L65.0355 70.5906L56.7107 62.2659L62.2579 56.7186L70.5827 65.0434Z" fill="#F39C12"/>
</svg>
